<?xml version="1.0" encoding="UTF-8" standalone="no"?>
<svg
   width="2400"
   height="720"
   viewBox="0 0 2400 720"
   role="img"
   aria-labelledby="title desc"
   version="1.1"
   id="svg32"
   sodipodi:docname="logo-horizontal-transparent.svg"
   xmlns:inkscape="http://www.inkscape.org/namespaces/inkscape"
   xmlns:sodipodi="http://sodipodi.sourceforge.net/DTD/sodipodi-0.dtd"
   xmlns="http://www.w3.org/2000/svg"
   xmlns:svg="http://www.w3.org/2000/svg">
  <sodipodi:namedview
     id="namedview34"
     pagecolor="#ffffff"
     bordercolor="#000000"
     borderopacity="0.25"
     inkscape:showpageshadow="2"
     inkscape:pageopacity="0.0"
     inkscape:pagecheckerboard="0"
     inkscape:deskcolor="#d1d1d1" />
  <title
     id="title">ALOKA LIVE horizontal logo</title>
  <desc
     id="desc">Purple ALOKA icon and wordmark with a red live indicator on a transparent background.</desc>
  <defs
     id="defs16">
    <linearGradient
       id="alokaHorizontalGradient"
       x1="70"
       y1="70"
       x2="650"
       y2="650"
       gradientUnits="userSpaceOnUse">
      <stop
         offset="0"
         stop-color="#6A18F2"
         id="stop4" />
      <stop
         offset="0.5"
         stop-color="#4C0ECD"
         id="stop6" />
      <stop
         offset="1"
         stop-color="#1B0761"
         id="stop8" />
    </linearGradient>
    <linearGradient
       id="livePill"
       x1="0"
       y1="0"
       x2="420"
       y2="0"
       gradientUnits="userSpaceOnUse">
      <stop
         stop-color="#4C0ECD"
         id="stop11" />
      <stop
         offset="1"
         stop-color="#6A18F2"
         id="stop13" />
    </linearGradient>
  </defs>
  <g
     transform="matrix(0.61,0,0,0.61,54,48)"
     id="g20">
    <path
       fill="url(#alokaHorizontalGradient)"
       fill-rule="evenodd"
       d="m 512,96 c -45,0 -81,28 -100,72 L 118,866 c -13,31 10,62 43,62 h 143 c 19,0 36,-11 43,-29 l 71,-179 h 188 l 71,179 c 7,18 24,29 43,29 h 143 c 33,0 56,-31 43,-62 L 612,168 C 593,124 557,96 512,96 Z m -67,296 c 0,-21 23,-34 41,-23 l 165,105 c 17,11 17,37 0,48 L 486,627 c -18,11 -41,-2 -41,-23 z m 10,328 h 114 l -57,145 z"
       id="path18" />
  </g>
  <g
     aria-label="ALOKA"
     id="text22"
     style="font-weight:800;font-size:284px;font-family:'DejaVu Sans', Arial, sans-serif;letter-spacing:12;fill:#1b0761">
    <path
       d="M 881.70703,330.28125 H 798.22656 L 785.05273,368 h -53.66601 l 76.68555,-207.03711 h 63.65039 L 948.4082,368 h -53.66601 z m -70.16797,-38.41211 h 56.7168 L 839.9668,209.49805 Z"
       id="path36" />
    <path
       d="m 987.86523,160.96289 h 53.38867 v 166.68359 h 93.7422 V 368 H 987.86523 Z"
       id="path38" />
    <path
       d="m 1265.2832,195.9082 q -24.4062,0 -37.8574,18.02735 -13.4512,18.02734 -13.4512,50.7539 0,32.58789 13.4512,50.61524 13.4512,18.02734 37.8574,18.02734 24.5449,0 37.9961,-18.02734 13.4512,-18.02735 13.4512,-50.61524 0,-32.72656 -13.4512,-50.7539 -13.4512,-18.02735 -37.9961,-18.02735 z m 0,-38.68945 q 49.9219,0 78.2109,28.56641 28.2891,28.5664 28.2891,78.90429 0,50.19922 -28.2891,78.76563 -28.289,28.5664 -78.2109,28.5664 -49.7832,0 -78.2109,-28.5664 -28.2891,-28.56641 -28.2891,-78.76563 0,-50.33789 28.2891,-78.90429 28.4277,-28.56641 78.2109,-28.56641 z"
       id="path40" />
    <path
       d="m 1424.1367,160.96289 h 53.3887 v 75.57617 l 76.9629,-75.57617 h 61.9863 L 1516.7695,259.00391 1626.7363,368 h -66.8398 l -82.3711,-81.53906 V 368 h -53.3887 z"
       id="path42" />
    <path
       d="m 1781.8457,330.28125 h -83.4805 L 1685.1914,368 h -53.666 l 76.6855,-207.03711 h 63.6504 L 1848.5469,368 h -53.666 z m -70.168,-38.41211 h 56.7168 l -28.289,-82.37109 z"
       id="path44" />
  </g>
  <g
     transform="translate(744,430)"
     id="g30">
    <path
       id="rect24"
       style="fill:url(#livePill)"
       d="m 71,0 h 288 c 39.334,0 71,31.666 71,71 0,39.334 -31.666,71 -71,71 H 71 C 31.666,142 0,110.334 0,71 0,31.666 31.666,0 71,0 Z" />
    <path
       id="circle26"
       style="fill:#f6383e"
       d="M 95,71 A 25,25 0 0 1 70,96 25,25 0 0 1 45,71 25,25 0 0 1 70,46 25,25 0 0 1 95,71 Z" />
    <g
       aria-label="LIVE"
       id="text28"
       style="font-weight:700;font-size:84px;font-family:'DejaVu Sans', Arial, sans-serif;letter-spacing:16;fill:#ffffff">
      <path
         d="m 132.71094,38.763672 h 15.79101 v 49.300781 h 27.72657 V 100 h -43.51758 z"
         id="path49" />
      <path
         d="m 202.23633,38.763672 h 15.79101 V 100 h -15.79101 z"
         id="path51" />
      <path
         d="m 242.18945,38.763672 h 15.87305 l 16.24219,45.199219 16.20117,-45.199219 h 15.87305 L 283.69727,100 h -18.82618 z"
         id="path53" />
      <path
         d="m 330.5,38.763672 h 42.61523 v 11.935547 h -26.82421 v 11.402343 h 25.2246 v 11.935547 h -25.2246 v 14.027344 h 27.72656 V 100 H 330.5 Z"
         id="path55" />
    </g>
  </g>
</svg>
