<svg xmlns="http://www.w3.org/2000/svg" viewBox="0 0 280 44" width="280" height="44"><defs><linearGradient id="qg" x1="0" y1="0" x2="1" y2="1">
  <stop offset="0" stop-color="#16C784"/><stop offset="1" stop-color="#22D3EE"/>
</linearGradient></defs><g transform="translate(0,0) scale(0.6875)">
  <rect width="64" height="64" rx="15" fill="#0F172A"/>
  <circle cx="32" cy="32" r="16.5" fill="none" stroke="url(#qg)" stroke-width="3" opacity=".55"/>
  <path d="M6 32h13l4.5-11 8 22 5-11h21.5" fill="none" stroke="url(#qg)" stroke-width="4.6"
        stroke-linecap="round" stroke-linejoin="round"/>
  <circle cx="53" cy="13" r="3.6" fill="#22D3EE"/>
</g><g transform="translate(56,26.5) scale(0.04285714285714286)" fill="#0F172A"><path d="M986.97607421875 0.0V-146.438720703125H1090.462646484375V0.0ZM404.516357421875 0.0Q292.620849609375 0.0 214.0477294921875 -31.382080078125Q135.474609375 -62.76416015625 94.7373046875 -123.304443359375Q54.0 -183.8447265625 54.0 -272.3193359375Q54.0 -296.3193359375 56.855224609375 -321.740234375Q59.71044921875 -347.1611328125 63.7432861328125 -370.437255859375Q67.776123046875 -393.71337890625 71.776123046875 -412.2462158203125Q75.776123046875 -430.779052734375 78.065673828125 -441.0029296875L244.97900390625 -408.304443359375Q241.97900390625 -392.94921875 237.4461669921875 -370.107421875Q232.913330078125 -347.265625 229.5252685546875 -322.358154296875Q226.13720703125 -297.45068359375 226.13720703125 -274.8984375Q226.13720703125 -235.3193359375 239.571533203125 -209.9312744140625Q253.005859375 -184.543212890625 277.861083984375 -170.5894775390625Q302.71630859375 -156.6357421875 337.623779296875 -151.5372314453125Q372.53125 -146.438720703125 416.122314453125 -146.438720703125H847.49560546875L814.8388671875 -118.202880859375V-381.113525390625L843.588134765625 -356.78515625H747.7373046875Q712.94921875 -356.78515625 692.7327880859375 -347.6209716796875Q672.516357421875 -338.456787109375 663.740234375 -315.431396484375Q654.964111328125 -292.406005859375 654.964111328125 -251.28955078125Q654.964111328125 -203.725341796875 663.740234375 -181.6671142578125Q672.516357421875 -159.60888671875 692.7327880859375 -153.0238037109375Q712.94921875 -146.438720703125 747.7373046875 -146.438720703125V-7.1044921875Q663.961181640625 -7.1044921875 604.5 -32.1507568359375Q545.038818359375 -57.197021484375 513.932861328125 -111.2432861328125Q482.826904296875 -165.28955078125 482.826904296875 -251.28955078125Q482.826904296875 -330.841796875 513.932861328125 -387.3089599609375Q545.038818359375 -443.776123046875 604.5 -473.5Q663.961181640625 -503.223876953125 747.7373046875 -503.223876953125H986.97607421875V0.0ZM1090.462646484375 0.0V-146.438720703125Q1095.81787109375 -146.438720703125 1099.4954833984375 -141.359619140625Q1103.173095703125 -136.280517578125 1105.4954833984375 -126.622314453125Q1107.81787109375 -116.964111328125 1109.1402587890625 -103.6939697265625Q1110.462646484375 -90.423828125 1110.462646484375 -73.39697265625Q1110.462646484375 -56.3701171875 1109.1402587890625 -42.92236328125Q1107.81787109375 -29.474609375 1105.4954833984375 -19.81640625Q1103.173095703125 -10.158203125 1099.4954833984375 -5.0791015625Q1095.81787109375 0.0 1090.462646484375 0.0ZM674.734375 -596.44775390625V-727.068603515625H848.1611328125V-596.44775390625Z M1090 0V-146.438720703125H1390.680419921875L1283.755126953125 -57.474609375V-503.223876953125H1455.892333984375V0.0ZM1090 0Q1084.644775390625 0.0 1080.9671630859375 -5.0791015625Q1077.28955078125 -10.158203125 1074.9671630859375 -19.81640625Q1072.644775390625 -29.474609375 1071.3223876953125 -42.92236328125Q1070.0 -56.3701171875 1070.0 -73.39697265625Q1070.0 -96.0029296875 1072.144775390625 -112.2073974609375Q1074.28955078125 -128.411865234375 1078.78955078125 -137.42529296875Q1083.28955078125 -146.438720703125 1090.0 -146.438720703125ZM1123.55224609375 235.45068359375V104.829833984375H1287.307373046875V235.45068359375ZM1335.990966796875 235.45068359375V104.829833984375H1499.74609375V235.45068359375Z M1563 0V-146.438720703125H2084.23876953125L2006.065673828125 -67.265625V-699.591064453125H2178.202880859375V0.0ZM1688.18212890625 -146.438720703125V-560.81494140625H1859.964111328125V-146.438720703125Z M2922.23876953125 0.0V-146.438720703125H3025.725341796875V0.0ZM2503 0V-146.438720703125H2859.23583984375L2750.1015625 -53.331298828125V-186.86572265625Q2750.1015625 -255.062744140625 2737.2926025390625 -291.614990234375Q2724.483642578125 -328.167236328125 2694.0433349609375 -342.4761962890625Q2663.60302734375 -356.78515625 2610.208984375 -356.78515625H2529.208984375V-503.223876953125H2610.208984375Q2711.486572265625 -503.223876953125 2781.0596923828125 -469.5194091796875Q2850.6328125 -435.81494140625 2886.435791015625 -366.0313720703125Q2922.23876953125 -296.247802734375 2922.23876953125 -186.86572265625V0.0ZM3025.725341796875 0.0V-146.438720703125Q3031.08056640625 -146.438720703125 3034.7581787109375 -141.359619140625Q3038.435791015625 -136.280517578125 3040.7581787109375 -126.622314453125Q3043.08056640625 -116.964111328125 3044.4029541015625 -103.6939697265625Q3045.725341796875 -90.423828125 3045.725341796875 -73.39697265625Q3045.725341796875 -56.3701171875 3044.4029541015625 -42.92236328125Q3043.08056640625 -29.474609375 3040.7581787109375 -19.81640625Q3038.435791015625 -10.158203125 3034.7581787109375 -5.0791015625Q3031.08056640625 0.0 3025.725341796875 0.0Z M3026 0V-146.438720703125H3525.12841796875L3455.220947265625 -76.728271484375V-248.86865234375Q3455.220947265625 -290.7880859375 3445.9910888671875 -314.02392578125Q3436.76123046875 -337.259765625 3413.9134521484375 -347.0224609375Q3391.065673828125 -356.78515625 3349.277587890625 -356.78515625Q3307.50146484375 -356.78515625 3269.725341796875 -351.7523193359375Q3231.94921875 -346.719482421875 3209.23876953125 -338.009033203125L3317.492431640625 -436.301513671875Q3311.492431640625 -414.880615234375 3306.3148193359375 -380.959716796875Q3301.13720703125 -347.038818359375 3297.781982421875 -309.05224609375Q3294.4267578125 -271.065673828125 3294.4267578125 -237.44775390625Q3294.4267578125 -207.34326171875 3297.4595947265625 -172.00146484375Q3300.492431640625 -136.65966796875 3304.84765625 -108.593994140625Q3309.202880859375 -80.5283203125 3311.55810546875 -71.107421875L3147.934326171875 -25.60595703125Q3143.28955078125 -41.18505859375 3136.9671630859375 -73.040283203125Q3130.644775390625 -104.8955078125 3126.4671630859375 -147.461181640625Q3122.28955078125 -190.02685546875 3122.28955078125 -237.44775390625Q3122.28955078125 -286.802978515625 3127.1119384765625 -332.8358154296875Q3131.934326171875 -378.86865234375 3139.2567138671875 -416.36865234375Q3146.5791015625 -453.86865234375 3152.223876953125 -476.223876953125Q3176.802978515625 -485.223876953125 3229.961181640625 -494.223876953125Q3283.119384765625 -503.223876953125 3348.567138671875 -503.223876953125Q3441.593994140625 -503.223876953125 3503.39697265625 -478.223876953125Q3565.199951171875 -453.223876953125 3596.1014404296875 -397.4014892578125Q3627.0029296875 -341.5791015625 3627.0029296875 -246.934326171875V0.0ZM3348.2119140625 276.65966796875Q3283.119384765625 276.65966796875 3229.961181640625 269.225341796875Q3176.802978515625 261.791015625 3152.223876953125 254.50146484375Q3146.5791015625 234.988037109375 3139.2567138671875 204.0731201171875Q3131.934326171875 173.158203125 3127.1119384765625 134.13134765625Q3122.28955078125 95.1044921875 3122.28955078125 53.432861328125Q3122.28955078125 13.695556640625 3126.4671630859375 -21.7193603515625Q3130.644775390625 -57.13427734375 3136.9671630859375 -84.08203125Q3143.28955078125 -111.02978515625 3147.934326171875 -123.543212890625L3308.84765625 -72.620849609375Q3306.492431640625 -66.55517578125 3303.13720703125 -43.6865234375Q3299.781982421875 -20.81787109375 3297.1043701171875 6.5179443359375Q3294.4267578125 33.853759765625 3294.4267578125 54.143310546875Q3294.4267578125 79.301513671875 3297.4267578125 108.749267578125Q3300.4267578125 138.197021484375 3305.6043701171875 165.355224609375Q3310.781982421875 192.513427734375 3316.13720703125 210.802978515625L3206.752197265625 113.931396484375Q3229.107421875 120.931396484375 3268.1268310546875 125.576171875Q3307.146240234375 130.220947265625 3349.277587890625 130.220947265625Q3392.486572265625 130.220947265625 3415.15673828125 123.4776611328125Q3437.826904296875 116.734375 3446.52392578125 99.958251953125Q3455.220947265625 83.18212890625 3455.220947265625 53.406005859375V-146.438720703125H3627.0029296875V61.143310546875Q3627.0029296875 140.13134765625 3596.1014404296875 187.7373046875Q3565.199951171875 235.34326171875 3503.39697265625 256.00146484375Q3441.593994140625 276.65966796875 3348.2119140625 276.65966796875ZM3627.0029296875 0.0V-146.438720703125H3730.489501953125V0.0ZM3730.489501953125 0.0V-146.438720703125Q3735.8447265625 -146.438720703125 3739.5223388671875 -141.359619140625Q3743.199951171875 -136.280517578125 3745.5223388671875 -126.622314453125Q3747.8447265625 -116.964111328125 3749.1671142578125 -103.6939697265625Q3750.489501953125 -90.423828125 3750.489501953125 -73.39697265625Q3750.489501953125 -56.3701171875 3749.1671142578125 -42.92236328125Q3747.8447265625 -29.474609375 3745.5223388671875 -19.81640625Q3743.199951171875 -10.158203125 3739.5223388671875 -5.0791015625Q3735.8447265625 0.0 3730.489501953125 0.0ZM3026 0Q3020.644775390625 0.0 3016.9671630859375 -5.0791015625Q3013.28955078125 -10.158203125 3010.9671630859375 -19.81640625Q3008.644775390625 -29.474609375 3007.3223876953125 -42.92236328125Q3006.0 -56.3701171875 3006.0 -73.39697265625Q3006.0 -96.0029296875 3008.144775390625 -112.2073974609375Q3010.28955078125 -128.411865234375 3014.78955078125 -137.42529296875Q3019.28955078125 -146.438720703125 3026.0 -146.438720703125Z M4338.265625 0.0V-146.438720703125H4441.752197265625V0.0ZM3730 0Q3724.644775390625 0.0 3720.9671630859375 -5.0791015625Q3717.28955078125 -10.158203125 3714.9671630859375 -19.81640625Q3712.644775390625 -29.474609375 3711.3223876953125 -42.92236328125Q3710.0 -56.3701171875 3710.0 -73.39697265625Q3710.0 -96.0029296875 3712.144775390625 -112.2073974609375Q3714.28955078125 -128.411865234375 3718.78955078125 -137.42529296875Q3723.28955078125 -146.438720703125 3730.0 -146.438720703125ZM3729.355224609375 0.0V-146.438720703125H4229.28662109375L4166.12841796875 -87.385009765625V-250.158203125Q4166.12841796875 -293.722412109375 4156.8985595703125 -317.2806396484375Q4147.668701171875 -340.8388671875 4124.643310546875 -350.4239501953125Q4101.617919921875 -360.009033203125 4059.474609375 -360.009033203125Q4018.76416015625 -360.009033203125 3980.8104248046875 -354.9761962890625Q3942.856689453125 -349.943359375 3920.50146484375 -341.23291015625L4028.755126953125 -439.525390625Q4022.755126953125 -418.1044921875 4017.39990234375 -383.8612060546875Q4012.044677734375 -349.617919921875 4008.689453125 -311.8089599609375Q4005.334228515625 -274.0 4005.334228515625 -239.092529296875Q4005.334228515625 -208.988037109375 4008.3670654296875 -173.146240234375Q4011.39990234375 -137.304443359375 4015.755126953125 -108.9163818359375Q4020.1103515625 -80.5283203125 4022.465576171875 -71.107421875L3858.841796875 -25.60595703125Q3854.197021484375 -41.18505859375 3848.05224609375 -73.18505859375Q3841.907470703125 -105.18505859375 3837.7298583984375 -148.250732421875Q3833.55224609375 -191.31640625 3833.55224609375 -239.092529296875Q3833.55224609375 -288.7373046875 3838.3746337890625 -335.2373046875Q3843.197021484375 -381.7373046875 3850.341796875 -419.4149169921875Q3857.486572265625 -457.092529296875 3863.486572265625 -479.44775390625Q3888.065673828125 -488.44775390625 3941.223876953125 -497.44775390625Q3994.382080078125 -506.44775390625 4059.474609375 -506.44775390625Q4152.50146484375 -506.44775390625 4214.4820556640625 -481.44775390625Q4276.462646484375 -456.44775390625 4307.3641357421875 -399.9805908203125Q4338.265625 -343.513427734375 4338.265625 -248.223876953125V0.0ZM4441.752197265625 0.0V-146.438720703125Q4447.107421875 -146.438720703125 4450.7850341796875 -141.359619140625Q4454.462646484375 -136.280517578125 4456.7850341796875 -126.622314453125Q4459.107421875 -116.964111328125 4460.4298095703125 -103.6939697265625Q4461.752197265625 -90.423828125 4461.752197265625 -73.39697265625Q4461.752197265625 -56.3701171875 4460.4298095703125 -42.92236328125Q4459.107421875 -29.474609375 4456.7850341796875 -19.81640625Q4454.462646484375 -10.158203125 4450.7850341796875 -5.0791015625Q4447.107421875 0.0 4441.752197265625 0.0Z M4442 0V-146.438720703125H4882.5224609375L4849.86572265625 -118.202880859375V-381.113525390625L4878.614990234375 -356.78515625H4782.76416015625Q4747.97607421875 -356.78515625 4727.7596435546875 -347.6209716796875Q4707.543212890625 -338.456787109375 4698.76708984375 -315.431396484375Q4689.990966796875 -292.406005859375 4689.990966796875 -251.28955078125Q4689.990966796875 -203.725341796875 4698.76708984375 -181.6671142578125Q4707.543212890625 -159.60888671875 4727.7596435546875 -153.0238037109375Q4747.97607421875 -146.438720703125 4782.76416015625 -146.438720703125V-7.1044921875Q4698.988037109375 -7.1044921875 4639.52685546875 -32.1507568359375Q4580.065673828125 -57.197021484375 4548.959716796875 -111.2432861328125Q4517.853759765625 -165.28955078125 4517.853759765625 -251.28955078125Q4517.853759765625 -330.841796875 4548.959716796875 -387.3089599609375Q4580.065673828125 -443.776123046875 4639.52685546875 -473.5Q4698.988037109375 -503.223876953125 4782.76416015625 -503.223876953125H5022.0029296875V0.0ZM4442 0Q4436.644775390625 0.0 4432.9671630859375 -5.0791015625Q4429.28955078125 -10.158203125 4426.9671630859375 -19.81640625Q4424.644775390625 -29.474609375 4423.3223876953125 -42.92236328125Q4422.0 -56.3701171875 4422.0 -73.39697265625Q4422.0 -96.0029296875 4424.144775390625 -112.2073974609375Q4426.28955078125 -128.411865234375 4430.78955078125 -137.42529296875Q4435.28955078125 -146.438720703125 4442.0 -146.438720703125ZM4608.877685546875 -596.44775390625V-727.068603515625H4772.6328125V-596.44775390625ZM4821.31640625 -596.44775390625V-727.068603515625H4985.071533203125V-596.44775390625Z"/></g><g transform="translate(57,42.5) scale(0.006040268456375839)" fill="#16C784" opacity="0.85"><path d="M683.99951171875 -531.36083984375H970.16064453125L1096.64013671875 -371.12158203125L1252.6416015625 -191.52001953125L1502.16162109375 117.19970703125H1182.56005859375L1008.39990234375 -91.68017578125L908.63916015625 -235.84130859375ZM791.60009765625 20.0Q591.47998046875 20.0 430.579833984375 -69.0799560546875Q269.6796875 -158.159912109375 176.07958984375 -328.89990234375Q82.4794921875 -499.639892578125 82.4794921875 -744.0Q82.4794921875 -990.1201171875 176.07958984375 -1161.2401123046875Q269.6796875 -1332.360107421875 430.579833984375 -1421.1800537109375Q591.47998046875 -1510.0 791.60009765625 -1510.0Q991.72021484375 -1510.0 1152.120361328125 -1421.1800537109375Q1312.5205078125 -1332.360107421875 1406.380615234375 -1161.2401123046875Q1500.24072265625 -990.1201171875 1500.24072265625 -744.0Q1500.24072265625 -498.8798828125 1406.380615234375 -328.139892578125Q1312.5205078125 -157.39990234375 1152.120361328125 -68.699951171875Q991.72021484375 20.0 791.60009765625 20.0ZM791.60009765625 -289.76171875Q900.27978515625 -289.76171875 978.139404296875 -342.0615234375Q1055.9990234375 -394.361328125 1097.8387451171875 -495.8409423828125Q1139.678466796875 -597.320556640625 1139.678466796875 -744.0Q1139.678466796875 -891.91943359375 1097.8387451171875 -993.779052734375Q1055.9990234375 -1095.638671875 978.139404296875 -1147.9384765625Q900.27978515625 -1200.23828125 791.60009765625 -1200.23828125Q683.4404296875 -1200.23828125 605.4608154296875 -1147.8184814453125Q527.481201171875 -1095.398681640625 485.261474609375 -993.5390625Q443.041748046875 -891.679443359375 443.041748046875 -744.0Q443.041748046875 -597.320556640625 485.261474609375 -495.9609375Q527.481201171875 -394.601318359375 605.4608154296875 -342.1815185546875Q683.4404296875 -289.76171875 791.60009765625 -289.76171875Z M1555.43994140625 0.0 2052.359375 -1490.0H2524.6826171875L3036.962158203125 0.0H2640.879638671875L2433.56103515625 -651.43701171875Q2384.040771484375 -813.998046875 2337.5606689453125 -997.298828125Q2291.08056640625 -1180.599609375 2244.440673828125 -1378.19970703125H2323.001220703125Q2278.121337890625 -1180.11962890625 2235.9613037109375 -996.3388671875Q2193.80126953125 -812.55810546875 2146.52099609375 -651.43701171875L1947.4423828125 0.0ZM1892.80078125 -317.19873046875V-586.56005859375H2699.601318359375V-317.19873046875Z M3200.1591796875 0.0V-1490.0H3749.8427734375L3939.760498046875 -910.24462890625Q3955.800537109375 -856.724365234375 3976.4805908203125 -769.6038818359375Q3997.16064453125 -682.4833984375 4017.940673828125 -582.3028564453125Q4038.720703125 -482.122314453125 4056.480712890625 -388.90185546875Q4074.24072265625 -295.681396484375 4084.960693359375 -229.201171875H4017.88037109375Q4028.84033203125 -294.96142578125 4046.2203369140625 -387.94189453125Q4063.600341796875 -480.92236328125 4084.38037109375 -581.222900390625Q4105.160400390625 -681.5234375 4125.5804443359375 -769.00390625Q4146.00048828125 -856.484375 4162.04052734375 -910.24462890625L4349.23828125 -1490.0H4899.921875V0.0H4544.959716796875V-641.997314453125Q4544.959716796875 -691.79736328125 4546.979736328125 -770.1776123046875Q4548.999755859375 -848.557861328125 4551.6397705078125 -940.918212890625Q4554.27978515625 -1033.278564453125 4556.539794921875 -1126.87890625Q4558.7998046875 -1220.479248046875 4559.039794921875 -1300.95947265625H4580.35986328125Q4561.639892578125 -1212.19921875 4538.5198974609375 -1117.138916015625Q4515.39990234375 -1022.07861328125 4491.7598876953125 -932.018310546875Q4468.119873046875 -841.9580078125 4446.599853515625 -766.8177490234375Q4425.079833984375 -691.677490234375 4409.559814453125 -641.997314453125L4198.161376953125 0.0H3903.19970703125L3688.3212890625 -641.997314453125Q3672.80126953125 -691.4375 3651.1412353515625 -766.2177734375Q3629.481201171875 -840.998046875 3605.0811767578125 -930.818359375Q3580.68115234375 -1020.638671875 3557.0611572265625 -1115.93896484375Q3533.441162109375 -1211.2392578125 3513.001220703125 -1300.95947265625H3539.361328125Q3539.84130859375 -1222.1591796875 3542.101318359375 -1129.038818359375Q3544.361328125 -1035.91845703125 3546.88134765625 -943.1981201171875Q3549.4013671875 -850.477783203125 3551.5413818359375 -771.49755859375Q3553.681396484375 -692.517333984375 3553.681396484375 -641.997314453125V0.0Z M5132.1591796875 0.0V-1490.0H5484.80126953125V-905.28076171875H6079.8388671875V-1490.0H6432.48095703125V0.0H6079.8388671875V-617.19921875H5484.80126953125V0.0Z M6596.43994140625 0.0 7093.359375 -1490.0H7565.6826171875L8077.962158203125 0.0H7681.879638671875L7474.56103515625 -651.43701171875Q7425.040771484375 -813.998046875 7378.5606689453125 -997.298828125Q7332.08056640625 -1180.599609375 7285.440673828125 -1378.19970703125H7364.001220703125Q7319.121337890625 -1180.11962890625 7276.9613037109375 -996.3388671875Q7234.80126953125 -812.55810546875 7187.52099609375 -651.43701171875L6988.4423828125 0.0ZM6933.80078125 -317.19873046875V-586.56005859375H7740.601318359375V-317.19873046875Z M8789.000244140625 0.0H8392.519775390625V-301.76171875H8773.960205078125Q8901.99951171875 -301.76171875 8990.339111328125 -345.0413818359375Q9078.6787109375 -388.321044921875 9123.99853515625 -486.0206298828125Q9169.318359375 -583.72021484375 9169.318359375 -744.9599609375Q9169.318359375 -906.479736328125 9123.358520507812 -1003.8193359375Q9077.398681640625 -1101.158935546875 8988.4990234375 -1144.6986083984375Q8899.599365234375 -1188.23828125 8769.159912109375 -1188.23828125H8386.039794921875V-1490.0H8789Q9016.1201171875 -1490.0 9180.120239257812 -1400.6199951171875Q9344.120361328125 -1311.239990234375 9433.080444335938 -1144.3599853515625Q9522.04052734375 -977.47998046875 9522.04052734375 -744.9599609375Q9522.04052734375 -512.719970703125 9433.340454101562 -345.5999755859375Q9344.640380859375 -178.47998046875 9180.3203125 -89.239990234375Q9016.000244140625 0.0 8789.000244140625 0.0ZM8593.80126953125 -1490.0V0.0H8241.1591796875V-1490.0Z M10169.1591796875 0.0V-1490.0H10521.80126953125V-288.08154296875H11144.92041015625V0.0Z M11679.80126953125 -1490.0V0.0H11327.1591796875V-1490.0Z M12354.95947265625 0.0 11843.43994140625 -1490.0H12239.5224609375L12446.60107421875 -838.56298828125Q12495.641357421875 -677.44189453125 12541.081420898438 -499.1412353515625Q12586.521484375 -320.840576171875 12632.92138671875 -124.200439453125H12555.640869140625Q12600.520751953125 -322.04052734375 12643.560791015625 -499.7412109375Q12686.600830078125 -677.44189453125 12733.881103515625 -838.56298828125L12932.959716796875 -1490.0H13324.962158203125L12827.042724609375 0.0Z M13488.1591796875 0.0V-1490.0H14522.32080078125V-1201.91845703125H13840.80126953125V-893.7607421875H14468.000732421875V-611.75927734375H13840.80126953125V-288.08154296875H14521.440673828125V0.0Z"/></g></svg>