<svg xmlns="http://www.w3.org/2000/svg" viewBox="0 0 512 512" width="512" height="512" role="img" aria-label="ToFi X Tv">
<defs>
<linearGradient id="txg" x1="0" y1="0" x2="1" y2="1">
  <stop offset="0" stop-color="#38bdf8"/><stop offset="1" stop-color="#2563eb"/>
</linearGradient>
<linearGradient id="txg2" x1="0" y1="0" x2="0" y2="1">
  <stop offset="0" stop-color="#60a5fa"/><stop offset="1" stop-color="#2563eb"/>
</linearGradient>
</defs>
<rect width="512" height="512" rx="118" fill="#0f172a"/>
<!-- antennas -->
<g stroke="url(#txg)" stroke-width="26" stroke-linecap="round">
  <line x1="196" y1="96" x2="248" y2="164"/>
  <line x1="316" y1="96" x2="264" y2="164"/>
</g>
<ellipse cx="256" cy="170" rx="42" ry="18" fill="url(#txg)"/>
<!-- TV body -->
<rect x="86" y="168" width="340" height="230" rx="52" fill="none" stroke="url(#txg2)" stroke-width="24"/>
<rect x="196" y="398" width="120" height="22" rx="11" fill="#2563eb"/>
<!-- T -->
<path d="M138 240h104v34h-35v92h-34v-92h-35z" fill="#f8fafc"/>
<!-- X -->
<path d="M262 240h40l22 34 22-34h40l-42 63 42 63h-40l-22-34-22 34h-40l42-63z" fill="url(#txg)"/>
</svg>
